<mxfile host="app.diagrams.net" modified="2024-04-01T20:03:08.935Z" agent="Mozilla/5.0 (Windows NT 10.0; Win64; x64; rv:124.0) Gecko/20100101 Firefox/124.0" etag="VKlXdAUke-U8cXWulUuY" version="24.0.4" type="google">
  <diagram name="PÃ¡gina-1" id="Wwz4wsnpylaLG2IF8MQN">
    <mxGraphModel grid="1" page="1" gridSize="10" guides="1" tooltips="1" connect="1" arrows="1" fold="1" pageScale="1" pageWidth="827" pageHeight="1169" math="0" shadow="0">
      <root>
        <mxCell id="0" />
        <mxCell id="1" parent="0" />
        <mxCell id="APd8nDIaiaZSf9gLauIi-5" value="" style="edgeStyle=orthogonalEdgeStyle;rounded=0;orthogonalLoop=1;jettySize=auto;html=1;" edge="1" parent="1" source="APd8nDIaiaZSf9gLauIi-1" target="APd8nDIaiaZSf9gLauIi-4">
          <mxGeometry relative="1" as="geometry" />
        </mxCell>
        <mxCell id="APd8nDIaiaZSf9gLauIi-1" value="inicio" style="ellipse;whiteSpace=wrap;html=1;aspect=fixed;" vertex="1" parent="1">
          <mxGeometry x="320" y="70" width="80" height="80" as="geometry" />
        </mxCell>
        <mxCell id="APd8nDIaiaZSf9gLauIi-7" value="" style="edgeStyle=orthogonalEdgeStyle;rounded=0;orthogonalLoop=1;jettySize=auto;html=1;" edge="1" parent="1" source="APd8nDIaiaZSf9gLauIi-4" target="APd8nDIaiaZSf9gLauIi-6">
          <mxGeometry relative="1" as="geometry" />
        </mxCell>
        <mxCell id="APd8nDIaiaZSf9gLauIi-9" value="" style="edgeStyle=orthogonalEdgeStyle;rounded=0;orthogonalLoop=1;jettySize=auto;html=1;" edge="1" parent="1" source="APd8nDIaiaZSf9gLauIi-4" target="APd8nDIaiaZSf9gLauIi-8">
          <mxGeometry relative="1" as="geometry" />
        </mxCell>
        <mxCell id="APd8nDIaiaZSf9gLauIi-4" value="vista" style="rhombus;whiteSpace=wrap;html=1;" vertex="1" parent="1">
          <mxGeometry x="320" y="230" width="80" height="80" as="geometry" />
        </mxCell>
        <mxCell id="APd8nDIaiaZSf9gLauIi-25" value="" style="edgeStyle=orthogonalEdgeStyle;rounded=0;orthogonalLoop=1;jettySize=auto;html=1;" edge="1" parent="1" source="APd8nDIaiaZSf9gLauIi-6" target="APd8nDIaiaZSf9gLauIi-24">
          <mxGeometry relative="1" as="geometry" />
        </mxCell>
        <mxCell id="APd8nDIaiaZSf9gLauIi-6" value="crear usuario" style="whiteSpace=wrap;html=1;" vertex="1" parent="1">
          <mxGeometry x="460" y="240" width="120" height="60" as="geometry" />
        </mxCell>
        <mxCell id="APd8nDIaiaZSf9gLauIi-13" value="" style="edgeStyle=orthogonalEdgeStyle;rounded=0;orthogonalLoop=1;jettySize=auto;html=1;" edge="1" parent="1" source="APd8nDIaiaZSf9gLauIi-8" target="APd8nDIaiaZSf9gLauIi-12">
          <mxGeometry relative="1" as="geometry" />
        </mxCell>
        <mxCell id="8kU8YmJ3A8QaG065ohvo-13" value="" style="edgeStyle=orthogonalEdgeStyle;rounded=0;orthogonalLoop=1;jettySize=auto;html=1;entryX=1;entryY=0.75;entryDx=0;entryDy=0;" edge="1" parent="1" target="8kU8YmJ3A8QaG065ohvo-12">
          <mxGeometry relative="1" as="geometry">
            <mxPoint x="200" y="340" as="sourcePoint" />
            <mxPoint x="80" y="275" as="targetPoint" />
          </mxGeometry>
        </mxCell>
        <mxCell id="APd8nDIaiaZSf9gLauIi-8" value="login" style="whiteSpace=wrap;html=1;" vertex="1" parent="1">
          <mxGeometry x="140" y="240" width="120" height="60" as="geometry" />
        </mxCell>
        <mxCell id="APd8nDIaiaZSf9gLauIi-16" style="edgeStyle=orthogonalEdgeStyle;rounded=0;orthogonalLoop=1;jettySize=auto;html=1;entryX=1;entryY=0.75;entryDx=0;entryDy=0;" edge="1" parent="1" source="APd8nDIaiaZSf9gLauIi-24" target="APd8nDIaiaZSf9gLauIi-14">
          <mxGeometry relative="1" as="geometry">
            <mxPoint x="710" y="390" as="sourcePoint" />
            <Array as="points">
              <mxPoint x="740" y="445" />
            </Array>
          </mxGeometry>
        </mxCell>
        <mxCell id="APd8nDIaiaZSf9gLauIi-15" value="" style="edgeStyle=orthogonalEdgeStyle;rounded=0;orthogonalLoop=1;jettySize=auto;html=1;" edge="1" parent="1" source="APd8nDIaiaZSf9gLauIi-12" target="APd8nDIaiaZSf9gLauIi-14">
          <mxGeometry relative="1" as="geometry" />
        </mxCell>
        <mxCell id="APd8nDIaiaZSf9gLauIi-12" value="&lt;div&gt;email&lt;/div&gt;&lt;div&gt;password&lt;br&gt;&lt;/div&gt;" style="whiteSpace=wrap;html=1;" vertex="1" parent="1">
          <mxGeometry x="140" y="380" width="120" height="60" as="geometry" />
        </mxCell>
        <mxCell id="APd8nDIaiaZSf9gLauIi-18" value="" style="edgeStyle=orthogonalEdgeStyle;rounded=0;orthogonalLoop=1;jettySize=auto;html=1;" edge="1" parent="1" source="APd8nDIaiaZSf9gLauIi-14" target="APd8nDIaiaZSf9gLauIi-17">
          <mxGeometry relative="1" as="geometry" />
        </mxCell>
        <mxCell id="APd8nDIaiaZSf9gLauIi-14" value="dashboard user" style="whiteSpace=wrap;html=1;" vertex="1" parent="1">
          <mxGeometry x="380" y="400" width="120" height="60" as="geometry" />
        </mxCell>
        <mxCell id="APd8nDIaiaZSf9gLauIi-22" value="" style="edgeStyle=orthogonalEdgeStyle;rounded=0;orthogonalLoop=1;jettySize=auto;html=1;" edge="1" parent="1" source="APd8nDIaiaZSf9gLauIi-17" target="APd8nDIaiaZSf9gLauIi-21">
          <mxGeometry relative="1" as="geometry" />
        </mxCell>
        <mxCell id="8kU8YmJ3A8QaG065ohvo-4" value="" style="edgeStyle=orthogonalEdgeStyle;rounded=0;orthogonalLoop=1;jettySize=auto;html=1;" edge="1" parent="1" source="APd8nDIaiaZSf9gLauIi-17" target="8kU8YmJ3A8QaG065ohvo-3">
          <mxGeometry relative="1" as="geometry" />
        </mxCell>
        <mxCell id="8kU8YmJ3A8QaG065ohvo-7" value="" style="edgeStyle=orthogonalEdgeStyle;rounded=0;orthogonalLoop=1;jettySize=auto;html=1;" edge="1" parent="1" source="APd8nDIaiaZSf9gLauIi-17" target="8kU8YmJ3A8QaG065ohvo-6">
          <mxGeometry relative="1" as="geometry" />
        </mxCell>
        <mxCell id="APd8nDIaiaZSf9gLauIi-17" value="vista" style="rhombus;whiteSpace=wrap;html=1;" vertex="1" parent="1">
          <mxGeometry x="400" y="530" width="80" height="80" as="geometry" />
        </mxCell>
        <mxCell id="APd8nDIaiaZSf9gLauIi-27" value="" style="edgeStyle=orthogonalEdgeStyle;rounded=0;orthogonalLoop=1;jettySize=auto;html=1;" edge="1" parent="1" source="APd8nDIaiaZSf9gLauIi-19" target="APd8nDIaiaZSf9gLauIi-26">
          <mxGeometry relative="1" as="geometry" />
        </mxCell>
        <mxCell id="8kU8YmJ3A8QaG065ohvo-39" value="" style="edgeStyle=orthogonalEdgeStyle;rounded=0;orthogonalLoop=1;jettySize=auto;html=1;" edge="1" parent="1" source="APd8nDIaiaZSf9gLauIi-19" target="8kU8YmJ3A8QaG065ohvo-37">
          <mxGeometry relative="1" as="geometry" />
        </mxCell>
        <mxCell id="APd8nDIaiaZSf9gLauIi-19" value="midificar datos personales" style="whiteSpace=wrap;html=1;" vertex="1" parent="1">
          <mxGeometry x="550" y="690" width="120" height="60" as="geometry" />
        </mxCell>
        <mxCell id="APd8nDIaiaZSf9gLauIi-23" value="" style="edgeStyle=orthogonalEdgeStyle;rounded=0;orthogonalLoop=1;jettySize=auto;html=1;" edge="1" parent="1" source="APd8nDIaiaZSf9gLauIi-21" target="APd8nDIaiaZSf9gLauIi-19">
          <mxGeometry relative="1" as="geometry" />
        </mxCell>
        <mxCell id="APd8nDIaiaZSf9gLauIi-21" value="config user page" style="whiteSpace=wrap;html=1;" vertex="1" parent="1">
          <mxGeometry x="540" y="540" width="120" height="60" as="geometry" />
        </mxCell>
        <mxCell id="APd8nDIaiaZSf9gLauIi-24" value="&lt;div&gt;name&lt;/div&gt;&lt;div&gt;lastname&lt;/div&gt;&lt;div&gt;dni&lt;/div&gt;&lt;div&gt;email&lt;/div&gt;&lt;div&gt;password&lt;/div&gt;&lt;div&gt;avatar: input file&lt;/div&gt;&lt;div&gt;cbu dolar&lt;/div&gt;&lt;div&gt;cbu pesos&lt;br&gt;&lt;/div&gt;" style="whiteSpace=wrap;html=1;" vertex="1" parent="1">
          <mxGeometry x="680" y="170" width="120" height="170" as="geometry" />
        </mxCell>
        <mxCell id="APd8nDIaiaZSf9gLauIi-26" value="&lt;div&gt;name&lt;/div&gt;&lt;div&gt;lastname&lt;/div&gt;&lt;div&gt;dni&lt;/div&gt;&lt;div&gt;email&lt;/div&gt;&lt;div&gt;password&lt;/div&gt;&lt;div&gt;avatar: input file&lt;/div&gt;&lt;div&gt;cbu dolar&lt;/div&gt;&lt;div&gt;cbu pesos&lt;br&gt;&lt;/div&gt;" style="whiteSpace=wrap;html=1;" vertex="1" parent="1">
          <mxGeometry x="550" y="820" width="120" height="170" as="geometry" />
        </mxCell>
        <mxCell id="8kU8YmJ3A8QaG065ohvo-25" value="" style="edgeStyle=orthogonalEdgeStyle;rounded=0;orthogonalLoop=1;jettySize=auto;html=1;" edge="1" parent="1" source="APd8nDIaiaZSf9gLauIi-28" target="8kU8YmJ3A8QaG065ohvo-24">
          <mxGeometry relative="1" as="geometry" />
        </mxCell>
        <mxCell id="8kU8YmJ3A8QaG065ohvo-68" value="" style="edgeStyle=orthogonalEdgeStyle;rounded=0;orthogonalLoop=1;jettySize=auto;html=1;" edge="1" parent="1" source="APd8nDIaiaZSf9gLauIi-28" target="8kU8YmJ3A8QaG065ohvo-67">
          <mxGeometry relative="1" as="geometry" />
        </mxCell>
        <mxCell id="APd8nDIaiaZSf9gLauIi-28" value="&lt;div&gt;listar&amp;nbsp; todas&lt;/div&gt;&lt;div&gt;las divisas y cargar el dinero de la billetera&lt;br&gt;&lt;/div&gt;" style="whiteSpace=wrap;html=1;" vertex="1" parent="1">
          <mxGeometry x="300" y="940" width="140" height="70" as="geometry" />
        </mxCell>
        <mxCell id="8kU8YmJ3A8QaG065ohvo-54" value="" style="edgeStyle=orthogonalEdgeStyle;rounded=0;orthogonalLoop=1;jettySize=auto;html=1;" edge="1" parent="1" source="APd8nDIaiaZSf9gLauIi-36" target="8kU8YmJ3A8QaG065ohvo-53">
          <mxGeometry relative="1" as="geometry" />
        </mxCell>
        <mxCell id="APd8nDIaiaZSf9gLauIi-36" value="comprar y vender segun precio" style="whiteSpace=wrap;html=1;" vertex="1" parent="1">
          <mxGeometry x="-120" y="820" width="120" height="60" as="geometry" />
        </mxCell>
        <mxCell id="8kU8YmJ3A8QaG065ohvo-9" value="" style="edgeStyle=orthogonalEdgeStyle;rounded=0;orthogonalLoop=1;jettySize=auto;html=1;" edge="1" parent="1" source="8kU8YmJ3A8QaG065ohvo-3" target="APd8nDIaiaZSf9gLauIi-36">
          <mxGeometry relative="1" as="geometry" />
        </mxCell>
        <mxCell id="8kU8YmJ3A8QaG065ohvo-11" value="" style="edgeStyle=orthogonalEdgeStyle;rounded=0;orthogonalLoop=1;jettySize=auto;html=1;" edge="1" parent="1" source="8kU8YmJ3A8QaG065ohvo-3" target="8kU8YmJ3A8QaG065ohvo-10">
          <mxGeometry relative="1" as="geometry" />
        </mxCell>
        <mxCell id="8kU8YmJ3A8QaG065ohvo-3" value="dashboard create offer component" style="whiteSpace=wrap;html=1;" vertex="1" parent="1">
          <mxGeometry x="-70" y="550" width="120" height="60" as="geometry" />
        </mxCell>
        <mxCell id="8kU8YmJ3A8QaG065ohvo-8" value="" style="edgeStyle=orthogonalEdgeStyle;rounded=0;orthogonalLoop=1;jettySize=auto;html=1;" edge="1" parent="1" source="8kU8YmJ3A8QaG065ohvo-6" target="APd8nDIaiaZSf9gLauIi-28">
          <mxGeometry relative="1" as="geometry" />
        </mxCell>
        <mxCell id="8kU8YmJ3A8QaG065ohvo-47" style="edgeStyle=orthogonalEdgeStyle;rounded=0;orthogonalLoop=1;jettySize=auto;html=1;" edge="1" parent="1" source="8kU8YmJ3A8QaG065ohvo-6" target="8kU8YmJ3A8QaG065ohvo-33">
          <mxGeometry relative="1" as="geometry" />
        </mxCell>
        <mxCell id="8kU8YmJ3A8QaG065ohvo-6" value="dash board wallet" style="whiteSpace=wrap;html=1;" vertex="1" parent="1">
          <mxGeometry x="294" y="670" width="120" height="60" as="geometry" />
        </mxCell>
        <mxCell id="8kU8YmJ3A8QaG065ohvo-43" value="" style="edgeStyle=orthogonalEdgeStyle;rounded=0;orthogonalLoop=1;jettySize=auto;html=1;" edge="1" parent="1" source="8kU8YmJ3A8QaG065ohvo-10" target="8kU8YmJ3A8QaG065ohvo-42">
          <mxGeometry relative="1" as="geometry" />
        </mxCell>
        <mxCell id="8kU8YmJ3A8QaG065ohvo-10" value="ver el histÃ³rico de transacciones realizadas" style="whiteSpace=wrap;html=1;" vertex="1" parent="1">
          <mxGeometry x="-300" y="550" width="120" height="60" as="geometry" />
        </mxCell>
        <mxCell id="8kU8YmJ3A8QaG065ohvo-15" value="" style="edgeStyle=orthogonalEdgeStyle;rounded=0;orthogonalLoop=1;jettySize=auto;html=1;" edge="1" parent="1" source="8kU8YmJ3A8QaG065ohvo-12" target="8kU8YmJ3A8QaG065ohvo-14">
          <mxGeometry relative="1" as="geometry" />
        </mxCell>
        <mxCell id="8kU8YmJ3A8QaG065ohvo-12" value="&lt;div&gt;controller: api/user/login&lt;/div&gt;&lt;div&gt;metodo: post&lt;/div&gt;&lt;div&gt;&lt;br&gt;&lt;/div&gt;&lt;div&gt;email: string&lt;/div&gt;&lt;div&gt;password: string&lt;br&gt;&lt;/div&gt;" style="rounded=1;whiteSpace=wrap;html=1;fillColor=#fff2cc;strokeColor=#d6b656;" vertex="1" parent="1">
          <mxGeometry x="-190" y="130" width="210" height="150" as="geometry" />
        </mxCell>
        <mxCell id="8kU8YmJ3A8QaG065ohvo-14" value="&lt;div&gt;response user{&lt;/div&gt;&lt;div&gt;&lt;br&gt;&lt;/div&gt;&lt;div&gt;id&lt;/div&gt;&lt;div&gt;name&lt;br&gt;&lt;/div&gt;&lt;div&gt;avatar&lt;br&gt;&lt;/div&gt;&lt;div&gt;wallet&lt;br&gt;&lt;/div&gt;" style="whiteSpace=wrap;html=1;fillColor=#fff2cc;strokeColor=#d6b656;rounded=1;" vertex="1" parent="1">
          <mxGeometry x="-180" y="320" width="230" height="160" as="geometry" />
        </mxCell>
        <mxCell id="8kU8YmJ3A8QaG065ohvo-17" value="" style="edgeStyle=orthogonalEdgeStyle;rounded=0;orthogonalLoop=1;jettySize=auto;html=1;" edge="1" parent="1" source="8kU8YmJ3A8QaG065ohvo-16" target="APd8nDIaiaZSf9gLauIi-24">
          <mxGeometry relative="1" as="geometry" />
        </mxCell>
        <mxCell id="8kU8YmJ3A8QaG065ohvo-19" value="" style="edgeStyle=orthogonalEdgeStyle;rounded=0;orthogonalLoop=1;jettySize=auto;html=1;" edge="1" parent="1" source="8kU8YmJ3A8QaG065ohvo-16" target="8kU8YmJ3A8QaG065ohvo-18">
          <mxGeometry relative="1" as="geometry" />
        </mxCell>
        <mxCell id="8kU8YmJ3A8QaG065ohvo-16" value="&lt;div&gt;controller: api/user/register&lt;/div&gt;&lt;div&gt;metodo: post&lt;/div&gt;&lt;div&gt;&lt;br&gt;&lt;/div&gt;&lt;br&gt;&lt;div&gt;&lt;div&gt;name: string&lt;br&gt;&lt;/div&gt;&lt;div&gt;lastname: string&lt;br&gt;&lt;/div&gt;&lt;div&gt;dni: string&lt;br&gt;&lt;/div&gt;&lt;div&gt;email: string&lt;/div&gt;&lt;div&gt;password: string&lt;/div&gt;&lt;div&gt;avatar: string&lt;br&gt;&lt;/div&gt;&lt;div&gt;cbu dolar:string&lt;/div&gt;&lt;div&gt;cbu pesos: string&lt;br&gt;&lt;/div&gt;&lt;/div&gt;" style="rounded=1;whiteSpace=wrap;html=1;fillColor=#fff2cc;strokeColor=#d6b656;" vertex="1" parent="1">
          <mxGeometry x="827" y="70" width="190" height="300" as="geometry" />
        </mxCell>
        <mxCell id="8kU8YmJ3A8QaG065ohvo-18" value="&lt;div&gt;response user&lt;/div&gt;&lt;div&gt;id&lt;/div&gt;&lt;div&gt;name&lt;/div&gt;&lt;div&gt;avatar&lt;/div&gt;&lt;div&gt;wallet&lt;br&gt;&lt;/div&gt;" style="whiteSpace=wrap;html=1;fillColor=#fff2cc;strokeColor=#d6b656;rounded=1;" vertex="1" parent="1">
          <mxGeometry x="862" y="420" width="120" height="70" as="geometry" />
        </mxCell>
        <mxCell id="8kU8YmJ3A8QaG065ohvo-21" value="" style="edgeStyle=orthogonalEdgeStyle;rounded=0;orthogonalLoop=1;jettySize=auto;html=1;" edge="1" parent="1" source="8kU8YmJ3A8QaG065ohvo-20" target="APd8nDIaiaZSf9gLauIi-26">
          <mxGeometry relative="1" as="geometry" />
        </mxCell>
        <mxCell id="8kU8YmJ3A8QaG065ohvo-30" value="" style="edgeStyle=orthogonalEdgeStyle;rounded=0;orthogonalLoop=1;jettySize=auto;html=1;" edge="1" parent="1" source="8kU8YmJ3A8QaG065ohvo-20" target="8kU8YmJ3A8QaG065ohvo-29">
          <mxGeometry relative="1" as="geometry" />
        </mxCell>
        <mxCell id="8kU8YmJ3A8QaG065ohvo-20" value="&lt;div&gt;controller: api/user/register/{id}&lt;/div&gt;&lt;div&gt;metodo: patch&lt;/div&gt;&lt;div&gt;&lt;br&gt;&lt;/div&gt;&lt;br&gt;&lt;div&gt;&lt;div&gt;name: string&lt;br&gt;&lt;/div&gt;&lt;div&gt;lastname: string&lt;br&gt;&lt;/div&gt;&lt;div&gt;dni: string&lt;br&gt;&lt;/div&gt;&lt;div&gt;email: string&lt;/div&gt;&lt;div&gt;password: string&lt;/div&gt;&lt;div&gt;avatar: string&lt;br&gt;&lt;/div&gt;&lt;div&gt;cbu dolar:string&lt;/div&gt;&lt;div&gt;cbu pesos: string&lt;br&gt;&lt;/div&gt;&lt;/div&gt;" style="rounded=1;whiteSpace=wrap;html=1;fillColor=#fff2cc;strokeColor=#d6b656;" vertex="1" parent="1">
          <mxGeometry x="760" y="960" width="190" height="300" as="geometry" />
        </mxCell>
        <mxCell id="8kU8YmJ3A8QaG065ohvo-28" value="" style="edgeStyle=orthogonalEdgeStyle;rounded=0;orthogonalLoop=1;jettySize=auto;html=1;" edge="1" parent="1" source="8kU8YmJ3A8QaG065ohvo-24" target="8kU8YmJ3A8QaG065ohvo-27">
          <mxGeometry relative="1" as="geometry" />
        </mxCell>
        <mxCell id="8kU8YmJ3A8QaG065ohvo-24" value="&lt;div&gt;controller: api/user/wallet/{id}&lt;/div&gt;&lt;div&gt;metodo: patch&lt;/div&gt;&lt;div&gt;&lt;br&gt;&lt;/div&gt;&lt;div&gt;quantity: number&lt;br&gt;&lt;/div&gt;&lt;div&gt;&lt;br&gt;&lt;/div&gt;&lt;div&gt;&lt;br&gt;&lt;/div&gt;&lt;div&gt;&lt;br&gt; &lt;/div&gt;" style="whiteSpace=wrap;html=1;fillColor=#fff2cc;strokeColor=#d6b656;" vertex="1" parent="1">
          <mxGeometry x="294" y="1055" width="180" height="110" as="geometry" />
        </mxCell>
        <mxCell id="8kU8YmJ3A8QaG065ohvo-27" value="response 200" style="whiteSpace=wrap;html=1;fillColor=#fff2cc;strokeColor=#d6b656;" vertex="1" parent="1">
          <mxGeometry x="310" y="1260" width="120" height="60" as="geometry" />
        </mxCell>
        <mxCell id="8kU8YmJ3A8QaG065ohvo-29" value="response 200" style="whiteSpace=wrap;html=1;fillColor=#fff2cc;strokeColor=#d6b656;rounded=1;" vertex="1" parent="1">
          <mxGeometry x="760" y="1310" width="120" height="60" as="geometry" />
        </mxCell>
        <mxCell id="8kU8YmJ3A8QaG065ohvo-36" value="" style="edgeStyle=orthogonalEdgeStyle;rounded=0;orthogonalLoop=1;jettySize=auto;html=1;" edge="1" parent="1" source="8kU8YmJ3A8QaG065ohvo-33" target="8kU8YmJ3A8QaG065ohvo-35">
          <mxGeometry relative="1" as="geometry" />
        </mxCell>
        <mxCell id="8kU8YmJ3A8QaG065ohvo-33" value="&lt;div&gt;controller: api/user/products/{id}&lt;/div&gt;&lt;div&gt;metodo: get&lt;/div&gt;&lt;div&gt;&lt;br&gt;&lt;/div&gt;&lt;div&gt;&lt;br&gt;&lt;/div&gt;" style="whiteSpace=wrap;html=1;fillColor=#fff2cc;strokeColor=#d6b656;" vertex="1" parent="1">
          <mxGeometry x="80" y="680" width="150" height="90" as="geometry" />
        </mxCell>
        <mxCell id="8kU8YmJ3A8QaG065ohvo-35" value="page prodcuts" style="whiteSpace=wrap;html=1;fillColor=#fff2cc;strokeColor=#d6b656;" vertex="1" parent="1">
          <mxGeometry x="95" y="865" width="120" height="60" as="geometry" />
        </mxCell>
        <mxCell id="8kU8YmJ3A8QaG065ohvo-41" value="" style="edgeStyle=orthogonalEdgeStyle;rounded=0;orthogonalLoop=1;jettySize=auto;html=1;" edge="1" parent="1" source="8kU8YmJ3A8QaG065ohvo-37" target="8kU8YmJ3A8QaG065ohvo-40">
          <mxGeometry relative="1" as="geometry" />
        </mxCell>
        <mxCell id="8kU8YmJ3A8QaG065ohvo-37" value="&lt;div&gt;controller: api/user{id}&lt;/div&gt;&lt;div&gt;metodo get&lt;/div&gt;&lt;div&gt;&lt;br&gt;&lt;/div&gt;&lt;div&gt;&lt;br&gt;&lt;/div&gt;" style="whiteSpace=wrap;html=1;fillColor=#fff2cc;strokeColor=#d6b656;" vertex="1" parent="1">
          <mxGeometry x="710" y="670" width="150" height="80" as="geometry" />
        </mxCell>
        <mxCell id="8kU8YmJ3A8QaG065ohvo-40" value="response&lt;div&gt;&lt;br&gt;&lt;/div&gt;&lt;br&gt;&lt;div&gt;&lt;div&gt;name: string&lt;br&gt;&lt;/div&gt;&lt;div&gt;lastname: string&lt;br&gt;&lt;/div&gt;&lt;div&gt;dni: string&lt;br&gt;&lt;/div&gt;&lt;div&gt;email: string&lt;/div&gt;&lt;div&gt;avatar: string&lt;br&gt;&lt;/div&gt;&lt;div&gt;cbu dolar:string&lt;/div&gt;&lt;div&gt;cbu pesos: string&lt;br&gt;&lt;/div&gt;&lt;/div&gt;" style="rounded=1;whiteSpace=wrap;html=1;fillColor=#fff2cc;strokeColor=#d6b656;" vertex="1" parent="1">
          <mxGeometry x="930" y="590" width="190" height="300" as="geometry" />
        </mxCell>
        <mxCell id="8kU8YmJ3A8QaG065ohvo-45" value="" style="edgeStyle=orthogonalEdgeStyle;rounded=0;orthogonalLoop=1;jettySize=auto;html=1;" edge="1" parent="1" source="8kU8YmJ3A8QaG065ohvo-42" target="8kU8YmJ3A8QaG065ohvo-44">
          <mxGeometry relative="1" as="geometry" />
        </mxCell>
        <mxCell id="8kU8YmJ3A8QaG065ohvo-42" value="&lt;div&gt;controller: api/user/transactions/{id}&lt;/div&gt;&lt;div&gt;metodo get&lt;/div&gt;&lt;div&gt;&lt;br&gt;&lt;/div&gt;&lt;div&gt;&lt;br&gt;&lt;/div&gt;" style="whiteSpace=wrap;html=1;fillColor=#fff2cc;strokeColor=#d6b656;" vertex="1" parent="1">
          <mxGeometry x="-553.5" y="550" width="140" height="100" as="geometry" />
        </mxCell>
        <mxCell id="8kU8YmJ3A8QaG065ohvo-44" value="&lt;div&gt;responste&lt;/div&gt;&lt;div&gt;peage transacciones{&lt;/div&gt;&lt;div&gt;&lt;br&gt;&lt;/div&gt;&lt;div&gt;producto(name, estado, precio}&lt;/div&gt;&lt;div&gt;fecha&lt;/div&gt;&lt;div&gt;cantidad&lt;/div&gt;&lt;div&gt;precio&lt;br&gt;&lt;/div&gt;" style="whiteSpace=wrap;html=1;fillColor=#fff2cc;strokeColor=#d6b656;" vertex="1" parent="1">
          <mxGeometry x="-600" y="720" width="200" height="200" as="geometry" />
        </mxCell>
        <mxCell id="8kU8YmJ3A8QaG065ohvo-57" value="" style="edgeStyle=orthogonalEdgeStyle;rounded=0;orthogonalLoop=1;jettySize=auto;html=1;" edge="1" parent="1" source="8kU8YmJ3A8QaG065ohvo-50" target="8kU8YmJ3A8QaG065ohvo-56">
          <mxGeometry relative="1" as="geometry" />
        </mxCell>
        <mxCell id="8kU8YmJ3A8QaG065ohvo-50" value="ColecciÃ³n con otra api" style="rhombus;whiteSpace=wrap;html=1;fillColor=#e1d5e7;strokeColor=#9673a6;" vertex="1" parent="1">
          <mxGeometry x="-170" y="960" width="120" height="110" as="geometry" />
        </mxCell>
        <mxCell id="8kU8YmJ3A8QaG065ohvo-55" style="edgeStyle=orthogonalEdgeStyle;rounded=0;orthogonalLoop=1;jettySize=auto;html=1;" edge="1" parent="1" source="8kU8YmJ3A8QaG065ohvo-53" target="8kU8YmJ3A8QaG065ohvo-50">
          <mxGeometry relative="1" as="geometry" />
        </mxCell>
        <mxCell id="8kU8YmJ3A8QaG065ohvo-53" value="&lt;div&gt;controlller : api/products&lt;/div&gt;&lt;div&gt;metodo get&lt;br&gt;&lt;/div&gt;" style="whiteSpace=wrap;html=1;fillColor=#fff2cc;strokeColor=#d6b656;" vertex="1" parent="1">
          <mxGeometry x="-290" y="830" width="120" height="60" as="geometry" />
        </mxCell>
        <mxCell id="8kU8YmJ3A8QaG065ohvo-59" value="" style="edgeStyle=orthogonalEdgeStyle;rounded=0;orthogonalLoop=1;jettySize=auto;html=1;" edge="1" parent="1" source="8kU8YmJ3A8QaG065ohvo-56" target="8kU8YmJ3A8QaG065ohvo-58">
          <mxGeometry relative="1" as="geometry" />
        </mxCell>
        <mxCell id="8kU8YmJ3A8QaG065ohvo-56" value="&lt;div&gt;comprar:&lt;/div&gt;&lt;div&gt;&lt;br&gt;&lt;/div&gt;&lt;div&gt;page productos&lt;/div&gt;&lt;div&gt;&lt;br&gt;&lt;/div&gt;" style="whiteSpace=wrap;html=1;fillColor=#fff2cc;strokeColor=#d6b656;" vertex="1" parent="1">
          <mxGeometry x="-350" y="1040" width="120" height="60" as="geometry" />
        </mxCell>
        <mxCell id="8kU8YmJ3A8QaG065ohvo-58" value="&lt;div&gt;name&lt;/div&gt;&lt;div&gt;precio compra&lt;/div&gt;&lt;div&gt;precio venta&lt;br&gt;&lt;/div&gt;" style="whiteSpace=wrap;html=1;fillColor=#fff2cc;strokeColor=#d6b656;" vertex="1" parent="1">
          <mxGeometry x="-360" y="1220" width="120" height="60" as="geometry" />
        </mxCell>
        <mxCell id="8kU8YmJ3A8QaG065ohvo-69" style="edgeStyle=orthogonalEdgeStyle;rounded=0;orthogonalLoop=1;jettySize=auto;html=1;" edge="1" parent="1" source="8kU8YmJ3A8QaG065ohvo-67" target="8kU8YmJ3A8QaG065ohvo-50">
          <mxGeometry relative="1" as="geometry" />
        </mxCell>
        <mxCell id="8kU8YmJ3A8QaG065ohvo-71" value="" style="edgeStyle=orthogonalEdgeStyle;rounded=0;orthogonalLoop=1;jettySize=auto;html=1;" edge="1" parent="1" source="8kU8YmJ3A8QaG065ohvo-67" target="8kU8YmJ3A8QaG065ohvo-70">
          <mxGeometry relative="1" as="geometry" />
        </mxCell>
        <mxCell id="8kU8YmJ3A8QaG065ohvo-67" value="vender productos" style="whiteSpace=wrap;html=1;" vertex="1" parent="1">
          <mxGeometry x="70" y="980" width="120" height="60" as="geometry" />
        </mxCell>
        <mxCell id="8kU8YmJ3A8QaG065ohvo-73" value="" style="edgeStyle=orthogonalEdgeStyle;rounded=0;orthogonalLoop=1;jettySize=auto;html=1;" edge="1" parent="1" source="8kU8YmJ3A8QaG065ohvo-70" target="8kU8YmJ3A8QaG065ohvo-72">
          <mxGeometry relative="1" as="geometry" />
        </mxCell>
        <mxCell id="8kU8YmJ3A8QaG065ohvo-70" value="&lt;div&gt;controller: api/user/products/{id}/{product_name}&lt;/div&gt;&lt;div&gt;&lt;br&gt;&lt;/div&gt;&lt;div&gt;metod patch&lt;br&gt;&lt;/div&gt;" style="whiteSpace=wrap;html=1;fillColor=#fff2cc;strokeColor=#d6b656;" vertex="1" parent="1">
          <mxGeometry x="20" y="1100" width="130" height="90" as="geometry" />
        </mxCell>
        <mxCell id="8kU8YmJ3A8QaG065ohvo-72" value="quantity: number" style="whiteSpace=wrap;html=1;" vertex="1" parent="1">
          <mxGeometry x="20" y="1240" width="120" height="60" as="geometry" />
        </mxCell>
      </root>
    </mxGraphModel>
  </diagram>
</mxfile>
